{"title":"Troy - Director's cut [BDRip-720p-Mkv-Ita/Eng/Esp/Fra/Deu-Ac3- ","uid":6060613,"size":8530686427,"categoryP":"video","categoryS":"hd___movies","magnet":"?xt=urn:btih:09fb6b05568d1357613c2fd804805612c5b86b20&amp;dn=Troy+-+Director%5C%27s+cut+%5BBDRip-720p-Mkv-Ita%2FEng%2FEsp%2FFra%2FDeu-Ac3-+&amp;tr=udp%3A%2F%2Ftracker.openbittorrent.com%3A80&amp;tr=udp%3A%2F%2Fopen.demonii.com%3A1337&amp;tr=udp%3A%2F%2Ftracker.coppersurfer.tk%3A6969&amp;tr=udp%3A%2F%2Fexodus.desync.com%3A6969","seeders":0,"leechers":2,"uploader":"maxneb","files":1,"time":1293104428,"description":"Troy - Director's cut [BDRip-720p-Mkv-Ita/Eng/Esp/Fra/Deu-Ac3- MultiSub][Nautilus-BT]\n\n\n\nGeneral\nComplete name                    : F:\\Troy [BDRip-720p-MultiLang-MultiSub-Chapters][RiP By MaX].mkv\nFormat                           : Matroska\nFile size                        : 7.94 GiB\nDuration                         : 3h 15mn\nOverall bit rate                 : 5 803 Kbps\nEncoded date                     : UTC 2010-11-22 11:43:33\nWriting application              : mkvmerge v4.4.0 ('Die Wiederkehr') built on Oct 31 2010 21:52:48\nWriting library                  : libebml v1.0.0 + libmatroska v1.0.0\n\nVideo\nID                               : 1\nFormat                           : AVC\nFormat/Info                      : Advanced Video Codec\nFormat profile                   : &lt;a class=&quot;__cf_email__&quot; href=&quot;/cdn-cgi/l/email-protection&quot; data-cfemail=&quot;0840616f6048443b2639&quot;&gt;[email&amp;#160;protected]&lt;/a&gt;&lt;script cf-hash='f9e31' type=&quot;text/javascript&quot;&gt;\n/* &lt;![CDATA[ */!function(){try{var t=&quot;currentScript&quot;in document?document.currentScript:function(){for(var t=document.getElementsByTagName(&quot;script&quot;),e=t.length;e--;)if(t[e].getAttribute(&quot;cf-hash&quot;))return t[e]}();if(t&amp;&amp;t.previousSibling){var e,r,n,i,c=t.previousSibling,a=c.getAttribute(&quot;data-cfemail&quot;);if(a){for(e=&quot;&quot;,r=parseInt(a.substr(0,2),16),n=2;a.length-n;n+=2)i=parseInt(a.substr(n,2),16)^r,e+=String.fromCharCode(i);e=document.createTextNode(e),c.parentNode.replaceChild(e,c)}}}catch(u){}}();/* ]]&gt; */&lt;/script&gt;\nFormat settings, CABAC           : Yes\nFormat settings, ReFrames        : 5 frames\nMuxing mode                      : Container profile=&lt;a class=&quot;__cf_email__&quot; href=&quot;/cdn-cgi/l/email-protection&quot; data-cfemail=&quot;95c0fbfefbfae2fbd5a6bba4&quot;&gt;[email&amp;#160;protected]&lt;/a&gt;&lt;script cf-hash='f9e31' type=&quot;text/javascript&quot;&gt;\n/* &lt;![CDATA[ */!function(){try{var t=&quot;currentScript&quot;in document?document.currentScript:function(){for(var t=document.getElementsByTagName(&quot;script&quot;),e=t.length;e--;)if(t[e].getAttribute(&quot;cf-hash&quot;))return t[e]}();if(t&amp;&amp;t.previousSibling){var e,r,n,i,c=t.previousSibling,a=c.getAttribute(&quot;data-cfemail&quot;);if(a){for(e=&quot;&quot;,r=parseInt(a.substr(0,2),16),n=2;a.length-n;n+=2)i=parseInt(a.substr(n,2),16)^r,e+=String.fromCharCode(i);e=document.createTextNode(e),c.parentNode.replaceChild(e,c)}}}catch(u){}}();/* ]]&gt; */&lt;/script&gt;\nCodec ID                         : V_MPEG4/ISO/AVC\nDuration                         : 3h 15mn\nBit rate                         : 3 753 Kbps\nWidth                            : 1 280 pixels\nHeight                           : 522 pixels\nDisplay aspect ratio             : 2.452\nFrame rate                       : 23.976 fps\nColor space                      : YUV\nChroma subsampling               : 4:2:0\nBit depth                        : 8 bits\nScan type                        : Progressive\nBits/(Pixel*Frame)               : 0.234\nStream size                      : 4.98 GiB (63%)\nTitle                            : Troy [BDRip 720p][RiP By MaX]\nWriting library                  : x264 core 107 r1766 f9f0035\nEncoding settings                : cabac=1 / ref=5 / deblock=1:0:0 / analyse=0x3:0x133 / me=hex / subme=7 / psy=1 / psy_rd=1.00:0.00 / mixed_ref=1 / me_range=16 / chroma_me=1 / trellis=1 / 8x8dct=1 / cqm=0 / deadzone=21,11 / fast_pskip=0 / chroma_qp_offset=-2 / threads=6 / sliced_threads=0 / nr=0 / decimate=0 / interlaced=0 / constrained_intra=0 / bframes=2 / b_pyramid=2 / b_adapt=2 / b_bias=0 / direct=3 / weightb=1 / open_gop=0 / weightp=2 / keyint=240 / keyint_min=23 / scenecut=40 / intra_refresh=0 / rc_lookahead=40 / rc=2pass / mbtree=1 / bitrate=3753 / ratetol=1.0 / qcomp=0.60 / qpmin=10 / qpmax=51 / qpstep=4 / cplxblur=20.0 / qblur=0.5 / ip_ratio=1.40 / aq=1:1.00\nLanguage                         : Italian\n\nAudio #1\nID                               : 2\nFormat                           : AC-3\nFormat/Info                      : Audio Coding 3\nMode extension                   : CM (complete main)\nCodec ID                         : A_AC3\nDuration                         : 3h 15mn\nBit rate mode                    : Constant\nBit rate                         : 448 Kbps\nChannel(s)                       : 6 channels\nChannel positions                : Front: L C R, Side: L R, LFE\nSampling rate                    : 48.0 KHz\nBit depth                        : 16 bits\nVideo delay                      : 8ms\nStream size                      : 628 MiB (8%)\nTitle                            : Ita Ac3 5.1\nLanguage                         : Italian\n\nAudio #2\nID                               : 3\nFormat                           : AC-3\nFormat/Info                      : Audio Coding 3\nMode extension                   : CM (complete main)\nCodec ID                         : A_AC3\nDuration                         : 3h 15mn\nBit rate mode                    : Constant\nBit rate                         : 448 Kbps\nChannel(s)                       : 6 channels\nChannel positions                : Front: L C R, Side: L R, LFE\nSampling rate                    : 48.0 KHz\nBit depth                        : 16 bits\nVideo delay                      : 8ms\nStream size                      : 628 MiB (8%)\nTitle                            : Eng Ac3 5.1\n\nAudio #3\nID                               : 4\nFormat                           : AC-3\nFormat/Info                      : Audio Coding 3\nMode extension                   : CM (complete main)\nCodec ID                         : A_AC3\nDuration                         : 3h 15mn\nBit rate mode                    : Constant\nBit rate                         : 384 Kbps\nChannel(s)                       : 6 channels\nChannel positions                : Front: L C R, Side: L R, LFE\nSampling rate                    : 48.0 KHz\nBit depth                        : 16 bits\nVideo delay                      : 8ms\nStream size                      : 538 MiB (7%)\nTitle                            : Esp Ac3 5.1\nLanguage                         : Spanish\n\nAudio #4\nID                               : 5\nFormat                           : AC-3\nFormat/Info                      : Audio Coding 3\nMode extension                   : CM (complete main)\nCodec ID                         : A_AC3\nDuration                         : 3h 15mn\nBit rate mode                    : Constant\nBit rate                         : 384 Kbps\nChannel(s)                       : 6 channels\nChannel positions                : Front: L C R, Side: L R, LFE\nSampling rate                    : 48.0 KHz\nBit depth                        : 16 bits\nVideo delay                      : 8ms\nStream size                      : 538 MiB (7%)\nTitle                            : Fra Ac3 5.1\nLanguage                         : French\n\nAudio #5\nID                               : 6\nFormat                           : AC-3\nFormat/Info                      : Audio Coding 3\nMode extension                   : CM (complete main)\nCodec ID                         : A_AC3\nDuration                         : 3h 15mn\nBit rate mode                    : Constant\nBit rate                         : 384 Kbps\nChannel(s)                       : 6 channels\nChannel positions                : Front: L C R, Side: L R, LFE\nSampling rate                    : 48.0 KHz\nBit depth                        : 16 bits\nVideo delay                      : 8ms\nStream size                      : 538 MiB (7%)\nTitle                            : Deu Ac3 5.1\nLanguage                         : German\n\nText #1\nID                               : 7\nFormat                           : UTF-8\nCodec ID                         : S_TEXT/UTF8\nCodec ID/Info                    : UTF-8 Plain Text\nTitle                            : Sub Ita Forced\nLanguage                         : Italian\n\nText #2\nID                               : 8\nFormat                           : UTF-8\nCodec ID                         : S_TEXT/UTF8\nCodec ID/Info                    : UTF-8 Plain Text\nTitle                            : Sub Ita\nLanguage                         : Italian\n\nText #3\nID                               : 9\nFormat                           : UTF-8\nCodec ID                         : S_TEXT/UTF8\nCodec ID/Info                    : UTF-8 Plain Text\nTitle                            : Sub Ita NU\nLanguage                         : Italian\n\nText #4\nID                               : 10\nFormat                           : UTF-8\nCodec ID                         : S_TEXT/UTF8\nCodec ID/Info                    : UTF-8 Plain Text\nTitle                            : Sub Eng\n\nText #5\nID                               : 11\nFormat                           : UTF-8\nCodec ID                         : S_TEXT/UTF8\nCodec ID/Info                    : UTF-8 Plain Text\nTitle                            : Sub Fra Forced\nLanguage                         : French\n\nText #6\nID                               : 12\nFormat                           : UTF-8\nCodec ID                         : S_TEXT/UTF8\nCodec ID/Info                    : UTF-8 Plain Text\nTitle                            : Sub Fra\nLanguage                         : French\n\nText #7\nID                               : 13\nFormat                           : UTF-8\nCodec ID                         : S_TEXT/UTF8\nCodec ID/Info                    : UTF-8 Plain Text\nTitle                            : Sub Deu Forced\nLanguage                         : German\n\nText #8\nID                               : 14\nFormat                           : UTF-8\nCodec ID                         : S_TEXT/UTF8\nCodec ID/Info                    : UTF-8 Plain Text\nTitle                            : Sub Deu\nLanguage                         : German\n\nText #9\nID                               : 15\nFormat                           : UTF-8\nCodec ID                         : S_TEXT/UTF8\nCodec ID/Info                    : UTF-8 Plain Text\nTitle                            : Sub Deu NU\nLanguage                         : German\n\nText #10\nID                               : 16\nFormat                           : UTF-8\nCodec ID                         : S_TEXT/UTF8\nCodec ID/Info                    : UTF-8 Plain Text\nTitle                            : Sub Esp Forced\nLanguage                         : Spanish\n\nText #11\nID                               : 17\nFormat                           : UTF-8\nCodec ID                         : S_TEXT/UTF8\nCodec ID/Info                    : UTF-8 Plain Text\nTitle                            : Sub Esp\nLanguage                         : Spanish\n\nText #12\nID                               : 18\nFormat                           : UTF-8\nCodec ID                         : S_TEXT/UTF8\nCodec ID/Info                    : UTF-8 Plain Text\nTitle                            : Sub Ned\nLanguage                         : Dutch\n\nText #13\nID                               : 19\nFormat                           : UTF-8\nCodec ID                         : S_TEXT/UTF8\nCodec ID/Info                    : UTF-8 Plain Text\nTitle                            : Sub Dan\nLanguage                         : Danish\n\nText #14\nID                               : 20\nFormat                           : UTF-8\nCodec ID                         : S_TEXT/UTF8\nCodec ID/Info                    : UTF-8 Plain Text\nTitle                            : Sub Fin\nLanguage                         : Finnish\n\nText #15\nID                               : 21\nFormat                           : UTF-8\nCodec ID                         : S_TEXT/UTF8\nCodec ID/Info                    : UTF-8 Plain Text\nTitle                            : Sub Nor\nLanguage                         : Norwegian\n\nText #16\nID                               : 22\nFormat                           : UTF-8\nCodec ID                         : S_TEXT/UTF8\nCodec ID/Info                    : UTF-8 Plain Text\nTitle                            : Sub Por\nLanguage                         : Portuguese\n\nText #17\nID                               : 23\nFormat                           : UTF-8\nCodec ID                         : S_TEXT/UTF8\nCodec ID/Info                    : UTF-8 Plain Text\nTitle                            : Sub Swe\nLanguage                         : Swedish\n\nMenu\n00:00:00.000                     : :01\n00:01:30.090                     : :02\n00:08:16.329                     : :03\n00:11:06.332                     : :04\n00:18:22.101                     : :05\n00:25:33.365                     : :06\n00:27:41.493                     : :07\n00:33:23.335                     : :08\n00:36:39.864                     : :09\n00:40:01.566                     : :10\n00:44:50.187                     : :11\n00:52:32.316                     : :12\n00:58:00.143                     : :13\n01:03:48.992                     : :14\n01:07:41.224                     : :15\n01:12:36.352                     : :16\n01:17:55.838                     : :17\n01:21:31.720                     : :18\n01:23:55.864                     : :19\n01:28:49.324                     : :20\n01:32:23.371                     : :21\n01:36:58.146                     : :22\n01:41:39.093                     : :23\n01:44:56.957                     : :24\n01:48:15.322                     : :25\n01:54:20.687                     : :26\n01:57:26.039                     : :27\n02:00:05.698                     : :28\n02:03:47.086                     : :29\n02:08:40.212                     : :30\n02:10:42.668                     : :31\n02:15:10.436                     : :32\n02:20:47.773                     : :33\n02:23:08.246                     : :34\n02:26:25.110                     : :35\n02:28:29.734                     : :36\n02:34:48.446                     : :37\n02:37:28.939                     : :38\n02:41:20.170                     : :39\n02:45:40.764                     : :40\n02:51:09.759                     : :41\n02:55:39.028                     : :42\n02:58:42.712                     : :43\n03:02:24.433                     : :44\n03:05:12.601                     : :45","torrent":{"xt":"urn:btih:09fb6b05568d1357613c2fd804805612c5b86b20","amp;dn":"Troy+-+Director%5C%27s+cut+%5BBDRip-720p-Mkv-Ita%2FEng%2FEsp%2FFra%2FDeu-Ac3-+","amp;tr":["udp%3A%2F%2Ftracker.openbittorrent.com%3A80","udp%3A%2F%2Fopen.demonii.com%3A1337","udp%3A%2F%2Ftracker.coppersurfer.tk%3A6969","udp%3A%2F%2Fexodus.desync.com%3A6969"],"infoHash":"09fb6b05568d1357613c2fd804805612c5b86b20","infoHashBuffer":{"type":"Buffer","data":[9,251,107,5,86,141,19,87,97,60,47,216,4,128,86,18,197,184,107,32]},"announce":[],"urlList":[]}}